<svg id="Layer_1" data-name="Layer 1" xmlns="http://www.w3.org/2000/svg" viewBox="0 0 471.747 500"><title>Logo</title><polygon points="95.624 140.25 165.748 140.25 235.874 70.126 235.874 0 95.624 140.25 95.624 140.25" style="fill:#5b6670"/><polygon points="235.874 70.126 341.063 175.313 376.123 140.25 235.874 0 235.874 70.126 235.874 70.126" style="fill:#79838b"/><polygon points="229.702 204.205 165.748 140.25 95.624 140.25 229.702 274.328 229.702 204.205 229.702 204.205" style="fill:#323e48"/><polygon points="288.467 157.782 235.874 105.189 200.811 140.25 253.404 192.845 242.047 204.202 242.047 274.328 288.467 227.908 323.53 192.845 288.467 157.782 288.467 157.782" style="fill:#c25131"/><path d="M50.033,387.01v22.013h8.12V436.63H36.139V348.4H58.153V365H80.345V348.4a22.024,22.024,0,0,0-22.192-22.013H36.139A21.872,21.872,0,0,0,14.126,348.4V436.63a21.873,21.873,0,0,0,22.013,22.013H58.153A22.025,22.025,0,0,0,80.345,436.63V387.01Z" transform="translate(-14.126)" style="fill:#fff"/><path d="M150.026,392.425a21.182,21.182,0,0,0,7.579-16.42V348.4a22.024,22.024,0,0,0-22.194-22.013H91.387V458.643H113.4V403.612H130a5.314,5.314,0,0,1,5.412,5.411v49.62H157.6v-49.62a21.543,21.543,0,0,0-7.579-16.6Zm-14.615-11.008H113.4V348.4h22.013v33.018Z" transform="translate(-14.126)" style="fill:#fff"/><path d="M234.945,458.643V348.4a22.025,22.025,0,0,0-22.195-22.013H190.739A21.87,21.87,0,0,0,168.726,348.4V458.643h22.013V403.612H212.75v55.031ZM212.75,381.417H190.739V348.4H212.75v33.018Z" transform="translate(-14.126)" style="fill:#fff"/><path d="M312.141,348.4a21.87,21.87,0,0,0-22.013-22.013h-11a21.835,21.835,0,0,0-11.008,2.887v-2.887h-22.01V458.643h22.01V348.4h22.013V458.643h22.013V348.4Z" transform="translate(-14.126)" style="fill:#fff"/><polygon points="331.094 348.34 331.094 326.386 309.081 326.386 309.081 348.34 331.094 348.34 331.094 348.34" style="fill:#fff"/><polygon points="309.081 359.052 309.081 458.643 331.094 458.643 331.094 359.052 309.081 359.052 309.081 359.052" style="fill:#fff"/><polygon points="342.146 326.386 342.146 348.399 364.159 348.399 364.159 458.643 386.172 458.643 386.172 348.399 408.365 348.399 408.365 326.386 342.146 326.386 342.146 326.386" style="fill:#fff"/><path d="M477.572,436.645H455.551V403.594h30.323V381.417H455.551v-33.05h30.323v-22H455.551a21.854,21.854,0,0,0-22,22v88.278a21.856,21.856,0,0,0,22,22h30.323v-22Z" transform="translate(-14.126)" style="fill:#fff"/><path d="M101.321,491.207v3.779H96.307v-20.1h5.014v3.78h5.055v-3.78a5.017,5.017,0,0,0-5.055-5.013H96.307a4.981,4.981,0,0,0-5.013,5.013v20.1A4.981,4.981,0,0,0,96.307,500h5.014a5.017,5.017,0,0,0,5.055-5.014v-3.779Z" transform="translate(-14.126)" style="fill:#c25131"/><path d="M228.361,474.89a4.982,4.982,0,0,0-5.014-5.013H220.84a4.978,4.978,0,0,0-2.507.656v-.656H213.32V500h5.013V474.89h5.014V500h5.014V474.89Z" transform="translate(-14.126)" style="fill:#c25131"/><polygon points="257.452 469.877 257.452 474.89 262.465 474.89 262.465 500 267.479 500 267.479 474.89 272.534 474.89 272.534 469.877 257.452 469.877 257.452 469.877" style="fill:#c25131"/><path d="M344.845,488.7a4.9,4.9,0,0,0-1.728-3.779,4.827,4.827,0,0,0,1.728-3.741V474.89a5.017,5.017,0,0,0-5.055-5.013H329.762V500h5.014V487.466h3.78a1.21,1.21,0,0,1,1.234,1.231V500h5.055V488.7Zm-5.055-6.286h-5.014V474.89h5.014v7.521Z" transform="translate(-14.126)" style="fill:#c25131"/><path d="M398.089,494.986h-5.013v-7.52h6.9v-5.055h-6.9V474.89h6.9v-5.013h-6.9a4.982,4.982,0,0,0-5.014,5.013v20.1A4.982,4.982,0,0,0,393.076,500h6.9v-5.014Z" transform="translate(-14.126)" style="fill:#c25131"/><path d="M101.321,306.415v3.78H96.307V290.1h5.014v3.782h5.055V290.1a5.017,5.017,0,0,0-5.055-5.014H96.307a4.981,4.981,0,0,0-5.013,5.014v20.1a4.981,4.981,0,0,0,5.013,5.013h5.014a5.017,5.017,0,0,0,5.055-5.013v-3.78Z" transform="translate(-14.126)" style="fill:#5b6670"/><path d="M163.877,310.2h-5.013v-7.521h6.9v-5.055h-6.9V290.1h6.9v-5.014h-6.9a4.981,4.981,0,0,0-5.014,5.014v20.1a4.981,4.981,0,0,0,5.014,5.013h6.9V310.2Z" transform="translate(-14.126)" style="fill:#5b6670"/><path d="M228.361,290.1a4.982,4.982,0,0,0-5.014-5.014H220.84a4.971,4.971,0,0,0-2.507.659v-.659H213.32v30.123h5.013V290.1h5.014v25.109h5.014V290.1Z" transform="translate(-14.126)" style="fill:#5b6670"/><polygon points="257.452 285.085 257.452 290.099 262.465 290.099 262.465 315.208 267.479 315.208 267.479 290.099 272.534 290.099 272.534 285.085 257.452 285.085 257.452 285.085" style="fill:#5b6670"/><path d="M344.845,303.908a4.909,4.909,0,0,0-1.728-3.782,4.816,4.816,0,0,0,1.728-3.738V290.1a5.017,5.017,0,0,0-5.055-5.014H329.762v30.123h5.014V302.674h3.78a1.211,1.211,0,0,1,1.234,1.234v11.3h5.055v-11.3Zm-5.055-6.289h-5.014V290.1h5.014v7.52Z" transform="translate(-14.126)" style="fill:#5b6670"/><path d="M398.089,310.2h-5.013v-7.521h6.9v-5.055h-6.9V290.1h6.9v-5.014h-6.9a4.982,4.982,0,0,0-5.014,5.014v20.1a4.982,4.982,0,0,0,5.014,5.013h6.9V310.2Z" transform="translate(-14.126)" style="fill:#5b6670"/><path d="M163.877,494.986h-5.013v-7.52h6.9v-5.055h-6.9V474.89h6.9v-5.013h-6.9a4.981,4.981,0,0,0-5.014,5.013v20.1A4.981,4.981,0,0,0,158.864,500h6.9v-5.014Z" transform="translate(-14.126)" style="fill:#c25131"/></svg>