<svg xmlns="http://www.w3.org/2000/svg" viewBox="0 0 650 650"><title>GraniteCentre-Logo</title><g id="Layer_1" data-name="Layer 1"><path d="M178.442,561.341v3.705h-4.913V545.353h4.913v3.705H183.4v-3.705a4.916,4.916,0,0,0-4.954-4.913h-4.913a4.882,4.882,0,0,0-4.913,4.913v19.693a4.882,4.882,0,0,0,4.913,4.913h4.913a4.916,4.916,0,0,0,4.954-4.913v-3.705Z" style="fill:#c2512f"/><path d="M302.931,545.353a4.882,4.882,0,0,0-4.913-4.913h-2.457a4.872,4.872,0,0,0-2.456.644v-.644h-4.913v29.519h4.913V545.353h4.913v24.606h4.913V545.353Z" style="fill:#c2512f"/><polygon points="345.28 540.44 345.28 545.353 350.193 545.353 350.193 569.959 355.107 569.959 355.107 545.353 360.06 545.353 360.06 540.44 345.28 540.44 345.28 540.44" style="fill:#c2512f"/><path d="M417.076,558.884a4.807,4.807,0,0,0-1.692-3.705,4.724,4.724,0,0,0,1.692-3.664v-6.162a4.916,4.916,0,0,0-4.954-4.913H402.3v29.519h4.913V557.676h3.7a1.186,1.186,0,0,1,1.208,1.208v11.075h4.954V558.884Zm-4.954-6.161h-4.913v-7.37h4.913v7.37Z" style="fill:#c2512f"/><path d="M469.251,565.046h-4.913v-7.37H471.1v-4.953h-6.765v-7.37H471.1V540.44h-6.765a4.881,4.881,0,0,0-4.913,4.913v19.693a4.881,4.881,0,0,0,4.913,4.913H471.1v-4.913Z" style="fill:#c2512f"/><path d="M239.743,565.046H234.83v-7.37H241.6v-4.953H234.83v-7.37H241.6V540.44H234.83a4.881,4.881,0,0,0-4.913,4.913v19.693a4.881,4.881,0,0,0,4.913,4.913H241.6v-4.913Z" style="fill:#c2512f"/><path d="M128.184,459.239V480.81h7.957v27.051H114.57V421.4h21.571v16.267h21.747V421.4a21.581,21.581,0,0,0-21.747-21.57H114.57A21.43,21.43,0,0,0,93,421.4v86.459a21.431,21.431,0,0,0,21.57,21.571h21.571a21.582,21.582,0,0,0,21.747-21.571V459.239Z" style="fill:#1c252c"/><path d="M226.17,464.543a20.749,20.749,0,0,0,7.426-16.089V421.4a21.581,21.581,0,0,0-21.747-21.57H168.708v129.6h21.57V475.505h16.266a5.211,5.211,0,0,1,5.3,5.305v48.622H233.6V480.81a21.114,21.114,0,0,0-7.426-16.267Zm-14.321-10.785H190.278V421.4h21.571v32.356Z" style="fill:#1c252c"/><path d="M309.382,529.432V421.4a21.581,21.581,0,0,0-21.747-21.57H266.064a21.431,21.431,0,0,0-21.57,21.57v108.03h21.57V475.505h21.571v53.927Zm-21.747-75.674H266.064V421.4h21.571v32.356Z" style="fill:#1c252c"/><path d="M385.03,421.4a21.431,21.431,0,0,0-21.571-21.57H352.674a21.39,21.39,0,0,0-10.785,2.829v-2.829H320.318v129.6h21.571V421.4h21.57v108.03H385.03V421.4Z" style="fill:#1c252c"/><polygon points="417.445 421.345 417.445 399.832 395.875 399.832 395.875 421.345 417.445 421.345 417.445 421.345" style="fill:#1c252c"/><polygon points="395.875 431.843 395.875 529.432 417.445 529.432 417.445 431.843 395.875 431.843 395.875 431.843" style="fill:#1c252c"/><polygon points="428.275 399.832 428.275 421.402 449.845 421.402 449.845 529.432 471.416 529.432 471.416 421.402 493.163 421.402 493.163 399.832 428.275 399.832 428.275 399.832" style="fill:#1c252c"/><path d="M547.137,507.877H525.56V475.49h29.712V453.758H525.56V421.371h29.712V399.816H525.56a21.416,21.416,0,0,0-21.555,21.555v86.506a21.416,21.416,0,0,0,21.555,21.555h29.712V507.877Z" style="fill:#1c252c"/><path d="M178.442,380.261v3.7h-4.913V364.273h4.913v3.7H183.4v-3.7a4.916,4.916,0,0,0-4.954-4.913h-4.913a4.882,4.882,0,0,0-4.913,4.913v19.693a4.882,4.882,0,0,0,4.913,4.913h4.913a4.916,4.916,0,0,0,4.954-4.913v-3.7Z" style="fill:#5b6770"/><path d="M239.743,383.966H234.83V376.6H241.6v-4.953H234.83v-7.37H241.6V359.36H234.83a4.881,4.881,0,0,0-4.913,4.913v19.693a4.881,4.881,0,0,0,4.913,4.913H241.6v-4.913Z" style="fill:#5b6770"/><path d="M302.931,364.273a4.882,4.882,0,0,0-4.913-4.913h-2.457a4.872,4.872,0,0,0-2.456.644v-.644h-4.913v29.519h4.913V364.273h4.913v24.606h4.913V364.273Z" style="fill:#5b6770"/><polygon points="345.28 359.36 345.28 364.273 350.193 364.273 350.193 388.879 355.107 388.879 355.107 364.273 360.06 364.273 360.06 359.36 345.28 359.36 345.28 359.36" style="fill:#5b6770"/><path d="M417.076,377.8a4.807,4.807,0,0,0-1.692-3.7,4.724,4.724,0,0,0,1.692-3.664v-6.162a4.916,4.916,0,0,0-4.954-4.913H402.3v29.519h4.913V376.6h3.7a1.186,1.186,0,0,1,1.208,1.208v11.075h4.954V377.8Zm-4.954-6.161h-4.913v-7.37h4.913v7.37Z" style="fill:#5b6770"/><path d="M469.251,383.966h-4.913V376.6H471.1v-4.953h-6.765v-7.37H471.1V359.36h-6.765a4.881,4.881,0,0,0-4.913,4.913v19.693a4.881,4.881,0,0,0,4.913,4.913H471.1v-4.913Z" style="fill:#5b6770"/><polygon points="186.702 217.434 255.419 217.434 324.136 148.717 324.136 80 186.702 217.434 186.702 217.434" style="fill:#323e49"/><polygon points="324.136 148.717 427.212 251.793 461.57 217.434 324.136 80 324.136 148.717 324.136 148.717" style="fill:#5b6770"/><polygon points="318.088 280.103 255.419 217.434 186.702 217.434 318.088 348.82 318.088 280.103 318.088 280.103" style="fill:#1c252c"/><polygon points="375.674 234.613 324.136 183.076 289.777 217.434 341.315 268.972 330.185 280.102 330.185 348.819 375.674 303.33 410.032 268.972 375.674 234.613 375.674 234.613" style="fill:#c2512f"/></g></svg>