<?xml version="1.0" encoding="utf-8"?>
<!-- Generator: Adobe Illustrator 22.0.1, SVG Export Plug-In . SVG Version: 6.00 Build 0)  -->
<svg version="1.1" xmlns="http://www.w3.org/2000/svg" xmlns:xlink="http://www.w3.org/1999/xlink" x="0px" y="0px"
	 viewBox="0 0 800 300" style="enable-background:new 0 0 800 300;" xml:space="preserve">
<style type="text/css">
	.st0{fill:#5B6670;}
	.st1{fill:#79838B;}
	.st2{fill:#323E48;}
	.st3{fill:#C25131;}
	.st4{fill:#FFFFFF;}
</style>
<g id="Layer_1">
</g>
<g id="Layer_2">
	<g>
		<path class="st4" d="M358.2,144.5v22h8.1v27.6h-22v-88.2h22v16.6h22.2v-16.6c0-12.3-9.9-22-22.2-22h-22c-12.3,0-22,9.7-22,22v88.2
			c0,12.3,9.7,22,22,22h22c12.3,0,22.2-9.7,22.2-22v-49.6H358.2L358.2,144.5z"/>
		<path class="st4" d="M785.8,194.1h-22v-33.1h30.3v-22.2h-8.3h-22v-33.1h30.3v-22h-8.3h-22c-12.3,0-22,9.7-22,22v27.6v60.6
			c0,12.3,9.7,22,22,22h30.3v-22H785.8L785.8,194.1z"/>
		<path class="st4" d="M458.2,149.9c4.9-4.2,7.6-9.9,7.6-16.4v-27.6c0-12.3-9.9-22-22.2-22h-44v132.3h22v-55h16.6
			c3.1,0,5.4,2.3,5.4,5.4v49.6h22.2v-49.6C465.8,160,463.1,154,458.2,149.9L458.2,149.9z M443.6,138.9h-22v-33h22V138.9L443.6,138.9
			z"/>
		<path class="st4" d="M543.1,216.1V105.9c0-12.3-9.9-22-22.2-22h-22c-12.3,0-22,9.7-22,22v110.2h22v-55h22v55H543.1L543.1,216.1z
			 M520.9,138.9h-22v-33h22V138.9L520.9,138.9z"/>
		<path class="st4" d="M620.3,105.9c0-12.3-9.7-22-22-22h-11c-3.8,0-7.6,0.9-11,2.9v-2.9h-22v132.3h22V105.9h22v110.2h22V105.9
			L620.3,105.9z"/>
		<polygon class="st4" points="653.4,105.8 653.4,83.8 631.4,83.8 631.4,105.8 653.4,105.8 		"/>
		<polygon class="st4" points="631.4,116.5 631.4,216.1 653.4,216.1 653.4,116.5 631.4,116.5 		"/>
		<polygon class="st4" points="664.5,83.8 664.5,105.9 686.5,105.9 686.5,216.1 708.5,216.1 708.5,105.9 730.7,105.9 730.7,83.8 
			664.5,83.8 		"/>
		<path class="st3" d="M409.5,248.7v3.8h-5v-20.1h5v3.8h5.1v-3.8c0-2.8-2.3-5-5.1-5h-5c-2.8,0-5,2.2-5,5v20.1c0,2.8,2.2,5,5,5h5
			c2.8,0,5.1-2.2,5.1-5v-3.8H409.5L409.5,248.7z"/>
		<path class="st3" d="M536.5,232.3c0-2.8-2.2-5-5-5H529c-0.9,0-1.7,0.2-2.5,0.7v-0.7h-5v30.1h5v-25.1h5v25.1h5V232.3L536.5,232.3z"
			/>
		<polygon class="st3" points="579.8,227.3 579.8,232.3 584.8,232.3 584.8,257.5 589.8,257.5 589.8,232.3 594.8,232.3 594.8,227.3 
			579.8,227.3 		"/>
		<path class="st3" d="M653,246.2c0-1.5-0.6-2.8-1.7-3.8c1.1-0.9,1.7-2.3,1.7-3.7v-6.3c0-2.8-2.3-5-5.1-5h-10v30.1h5v-12.5h3.8
			c0.7,0,1.2,0.5,1.2,1.2v11.3h5.1V246.2L653,246.2z M648,239.9h-5v-7.5h5V239.9L648,239.9z"/>
		<path class="st3" d="M706.3,252.4h-5v-7.5h6.9v-5.1h-1.9h-5v-7.5h6.9v-5h-1.9h-5c-2.8,0-5,2.2-5,5v6.3v13.8c0,2.8,2.2,5,5,5h6.9
			v-5H706.3L706.3,252.4z"/>
		<path class="st0" d="M409.5,63.9v3.8h-5V47.6h5v3.8h5.1v-3.8c0-2.8-2.3-5-5.1-5h-5c-2.8,0-5,2.2-5,5v20.1c0,2.8,2.2,5,5,5h5
			c2.8,0,5.1-2.2,5.1-5v-3.8H409.5L409.5,63.9z"/>
		<path class="st0" d="M472.1,67.7h-5v-7.5h6.9v-5.1h-1.9h-5v-7.5h6.9v-5h-1.9h-5c-2.8,0-5,2.2-5,5v6.3v13.8c0,2.8,2.2,5,5,5h6.9v-5
			H472.1L472.1,67.7z"/>
		<path class="st0" d="M536.5,47.6c0-2.8-2.2-5-5-5H529c-0.9,0-1.7,0.2-2.5,0.7v-0.7h-5v30.1h5V47.6h5v25.1h5V47.6L536.5,47.6z"/>
		<polygon class="st0" points="579.8,42.5 579.8,47.6 584.8,47.6 584.8,72.7 589.8,72.7 589.8,47.6 594.8,47.6 594.8,42.5 
			579.8,42.5 		"/>
		<path class="st0" d="M653,61.4c0-1.5-0.6-2.8-1.7-3.8c1.1-0.9,1.7-2.3,1.7-3.7v-6.3c0-2.8-2.3-5-5.1-5h-10v30.1h5V60.1h3.8
			c0.7,0,1.2,0.5,1.2,1.2v11.3h5.1V61.4L653,61.4z M648,55.1h-5v-7.5h5V55.1L648,55.1z"/>
		<path class="st0" d="M706.3,67.7h-5v-7.5h6.9v-5.1h-1.9h-5v-7.5h6.9v-5h-1.9h-5c-2.8,0-5,2.2-5,5v6.3v13.8c0,2.8,2.2,5,5,5h6.9v-5
			H706.3L706.3,67.7z"/>
		<path class="st3" d="M472.1,252.4h-5v-7.5h6.9v-5.1h-1.9h-5v-7.5h6.9v-5h-1.9h-5c-2.8,0-5,2.2-5,5v6.3v13.8c0,2.8,2.2,5,5,5h6.9
			v-5H472.1L472.1,252.4z"/>
	</g>
	<g>
		<polygon class="st0" points="5.9,153.1 76.1,153.1 146.2,83 146.2,12.8 5.9,153.1 		"/>
		<polygon class="st1" points="146.2,83 251.4,188.1 286.4,153.1 146.2,12.8 146.2,83 		"/>
		<polygon class="st2" points="140,217 76.1,153.1 5.9,153.1 140,287.2 140,217 		"/>
		<polygon class="st3" points="198.8,170.6 146.2,118 111.1,153.1 163.7,205.7 152.4,217 152.4,287.2 198.8,240.7 233.8,205.7 
			198.8,170.6 		"/>
	</g>
</g>
</svg>
