<svg version="1" xmlns="http://www.w3.org/2000/svg" width="1333.333" height="1333.333" viewBox="0 0 1000.000000 1000.000000"><path d="M250 261L0 511l238.5 238.5C369.7 880.7 477.2 988 477.5 988c.4 0 .5-6.8.3-15-.2-8.3.1-15 .5-15s.3-.9-.3-2-.7-2-.2-2c.5 0 .6-1.8.2-4-.4-2.2-.3-4 .2-4s.4-.9-.2-2c-.6-1.1-.7-2-.2-2 .5 0 .6-1.8.2-4-.4-2.2-.3-4 .2-4s.4-.9-.2-2c-.8-1.5-.8-2 .1-2s.9-.3 0-1.4c-.8-1-.9-1.6-.1-2.1.7-.4.7-1.2 0-2.6-.6-1-.7-1.9-.2-1.9.5 0 .6-1.8.2-4-.4-2.2-.3-4 .2-4s.4-.9-.2-2c-.6-1.1-.7-2-.2-2 .5 0 .6-1.8.2-4-.4-2.2-.3-4 .2-4s.4-.9-.2-2c-.6-1.1-.7-2-.3-2 .4 0 .6-9 .3-20s-.1-20 .3-20 .3-.9-.3-2-.7-2-.2-2c.5 0 .6-1.8.2-4-.4-2.2-.3-4 .2-4s.4-.9-.2-2c-.6-1.1-.7-2-.2-2 .5 0 .6-1.8.2-4-.4-2.2-.3-4 .2-4s.4-.9-.2-2c-.6-1.1-.7-2-.2-2 .5 0 .6-1.8.2-4-.4-2.2-.3-4 .2-4s.4-.9-.2-2c-.6-1.1-.7-2-.2-2 .5 0 .6-1.8.2-4-.4-2.2-.3-4 .2-4s.4-.9-.2-2c-.6-1.1-.7-2-.3-2 .4 0 .6-9 .3-20s-.1-20 .3-20 .3-.9-.3-2-.7-2-.2-2c.5 0 .6-1.8.2-4-.4-2.2-.3-4 .2-4s.4-.9-.2-2c-.6-1.1-.7-2-.2-2 .5 0 .6-1.8.2-4-.4-2.2-.3-4 .2-4s.4-.9-.2-2.1c-.7-1.1-52.2-53.1-114.6-115.5L250 511l125-125 125-125 187.5 187.5L875 636l62.5-62.5L1000 511 874.7 385.7l-250-250L500 11 250 261z"/><path d="M437.2 448.6L375 511l93.5 93.5c51.4 51.4 93.5 93.7 93.5 94 0 .3-9 9.6-20.1 20.6l-20.1 20 .4 7.4c.2 4.1-.1 7.5-.5 7.5s-.3.9.3 2c.8 1.5.8 2-.1 2s-.9.3 0 1.4c.8 1 .9 1.6.1 2.1-.7.4-.7 1.2 0 2.6.6 1 .7 1.9.3 1.9-.4 0-.6 3.6-.3 8s.1 8-.3 8-.3.9.3 2 .7 2 .3 2c-.4 0-.6 3.6-.3 8s.1 8-.3 8-.3.9.3 2c.8 1.5.8 2-.1 2s-.9.3 0 1.4c.8 1 .9 1.6.1 2.1-.7.4-.7 1.2 0 2.6.6 1 .7 1.9.3 1.9-.4 0-.6 3.6-.3 8s.1 8-.3 8-.3.9.3 2 .7 2 .3 2c-.4 0-.6 3.6-.3 8s.1 8-.3 8-.3.9.3 2c.8 1.5.8 2-.1 2s-.9.3 0 1.4c.8 1 .9 1.6.1 2.1-.7.4-.7 1.2 0 2.6.6 1 .7 1.9.3 1.9-.4 0-.6 3.6-.3 8s.1 8-.3 8-.3.9.3 2 .7 2 .3 2c-.4 0-.6 3.6-.3 8s.1 8-.3 8-.3.9.3 2c.8 1.5.8 2-.1 2s-.9.3 0 1.4c.8 1 .9 1.6.1 2.1-.7.4-.7 1.2 0 2.6.6 1 .7 1.9.3 1.9-.4 0-.6 3.6-.3 8s.1 8-.3 8-.3.9.3 2 .7 2 .3 2c-.4 0-.6 3.6-.3 8s.1 8-.3 8-.3.9.3 2c.8 1.5.8 2-.1 2s-.9.3 0 1.4c.8 1 .9 1.6.1 2.1-.7.4-.7 1.2 0 2.6.6 1 .7 1.9.3 1.9-.4 0-.6 3.6-.3 8s.1 8-.3 8-.3.9.3 2 .7 2 .3 2c-.4 0-.6 2.2-.5 5 .2 2.7.6 5 .8 5 .6 0 289.4-288.9 289.4-289.5 0-.5-311.8-312.6-312.2-312.4-.2 0-28.3 28.2-62.6 62.5z"/></svg>